<svg xmlns="http://www.w3.org/2000/svg" width="235" height="70" fill="none"><path fill="#2E3034" d="M72.776 39.06c-1.385 1.223-3.041 1.888-4.97 1.996a12.636 12.636 0 0 1-5.336-.896v-.04h-.081c-.272-.082-.666-.34-1.182-.774-.516-.435-.855-.774-1.018-1.019a6.623 6.623 0 0 1-.733-1.222c-.217-.461-.435-.91-.652-1.344-.407-.788-.625-1.467-.652-2.037a10.04 10.04 0 0 1-.04-.977c.027-.353.054-.76.081-1.222a12.143 12.143 0 0 1 1.915-5.663 4.76 4.76 0 0 1 .53-.53 6.642 6.642 0 0 1 1.018-.65c.841-.462 1.561-.788 2.158-.979.38-.135.815-.23 1.304-.285a14.429 14.429 0 0 1 3.422 0 9.084 9.084 0 0 1 3.258 1.1c.163.082.326.19.49.326.19.136.407.299.651.489.462.353.72.706.774 1.059a.876.876 0 0 1-.163.489c-.217.244-.42.366-.611.366-.217 0-.448-.081-.692-.244-.272-.19-.476-.34-.612-.448-.325-.19-.583-.353-.773-.489a3.934 3.934 0 0 0-.367-.244c-.95-.516-2.105-.774-3.463-.774-.298 0-.638.013-1.018.04-.38.028-.774.082-1.181.163h-.082l-.04.041c-2.363.68-3.897 2.281-4.603 4.807-.245.923-.3 1.792-.163 2.607.163.815.353 1.643.57 2.485.353 1.303.937 2.24 1.752 2.81.814.57 1.846.978 3.095 1.223.353.054.666.08.937.08.299 0 .584-.026.856-.08.271-.055.556-.11.855-.163.299-.055.611-.096.937-.123 1.303-.163 2.24-.638 2.81-1.425v-.041c.408-.625.571-1.507.49-2.648 0-.597-.204-1.073-.612-1.426-.515-.461-1.222-.679-2.118-.651l-2.2.081c-.244.027-.461.04-.651.04a3.53 3.53 0 0 1-.489.042c-.706-.11-1.018-.435-.937-.978.055-.353.313-.598.774-.733.842-.055 1.67-.055 2.485 0a18.96 18.96 0 0 0 2.485 0l1.181-.082c.543-.054.95.041 1.222.285.299.218.448.598.448 1.14.055.571.082 1.006.082 1.304 0 .49.013 1.005.04 1.548a5.598 5.598 0 0 1-.122 1.548c-.136.706-.489 1.412-1.059 2.118Zm19.186.326c.218.163.326.38.326.652.027.598-.326.896-1.059.896-1.33 0-2.675-.013-4.033-.04a32.64 32.64 0 0 0-3.992.081c-1.059.054-1.697-.23-1.914-.855-.109-.3-.163-.747-.163-1.345 0-.298.013-.57.04-.814v-.57c.028-.408.055-.843.082-1.304a9.779 9.779 0 0 0 0-1.263 76.134 76.134 0 0 0-.122-2.607 41.802 41.802 0 0 1 0-2.607c0-.434.013-.855.04-1.263.028-.434.041-.869.041-1.303v-1.507a8.64 8.64 0 0 0-.081-1.223c-.027-.488.203-.787.692-.896.733-.135 1.127.3 1.181 1.304.055.407.082.815.082 1.222.027.407.054.787.082 1.14v.734l-.082 1.059a10.16 10.16 0 0 0-.122.896c-.027.299-.054.584-.082.855-.027.706-.04 1.331-.04 1.874 0 .516.013.95.04 1.304.028.434.041.896.041 1.385a9.993 9.993 0 0 1-.04 1.548c-.028.814.094 1.344.366 1.588.19.245.625.394 1.303.448.326.055.652.082.978.082.326.027.652.068.978.122a7.362 7.362 0 0 0 1.548 0 5.913 5.913 0 0 1 1.548.04c.326.028.733.055 1.222.082.461.027.841.123 1.14.285Zm7.251 1.467c-.597-.082-.896-.435-.896-1.06a108.84 108.84 0 0 1-.04-2.932v-2.974c0-.543.026-1.1.08-1.67.055-.407.082-.787.082-1.14 0-.354-.013-.68-.04-.978a4.66 4.66 0 0 1-.041-.652 41.618 41.618 0 0 1-.082-.937c0-.19.014-.407.04-.652 0-.271.014-.583.042-.936 0-.245.013-.476.04-.693V24.885c-.054-.462-.04-.788.041-.978.054-.136.177-.271.367-.407.706-.38 1.154-.15 1.344.692.136.625.217 1.25.244 1.874.027.598.014 1.195-.04 1.792a12.594 12.594 0 0 0-.041 1.752c.027.57.013 1.14-.041 1.71-.054.517-.095.951-.122 1.304-.054.38-.095.706-.122.978-.027.353-.041.733-.041 1.14 0 .408.014.829.041 1.263v1.63c0 .299.013.597.04.896 0 .19.014.38.041.57 0 .163-.013.34-.041.53 0 .38-.013.584-.04.61-.055.354-.326.557-.815.612Zm23.178-16.864c.19-.055.489-.027.896.081.435.109.693.244.774.407 0 .028.014.041.041.041.054.543.081 1.344.081 2.404v2.077l.082 1.63c0 .515-.014 1.045-.041 1.588a34.066 34.066 0 0 0-.122 1.589 14.802 14.802 0 0 0 0 1.548l.081 1.344a5.17 5.17 0 0 1 0 1.303l-.081 1.304c-.027.624-.095 1.005-.204 1.14-.19.3-.421.449-.692.449-.598-.055-.91-.49-.937-1.304a39.681 39.681 0 0 1 0-3.585 23.135 23.135 0 0 0-.041-3.625l-.081-1.222c-.027-.598-.272-.923-.734-.978-.19 0-.353.027-.488.082a.93.93 0 0 0-.326.326c-.082.136-.15.271-.204.407a6.503 6.503 0 0 0-.204.448c-.135.38-.258.72-.366 1.018-.136.3-.245.557-.326.774-.19.38-.394.774-.611 1.182-.244.38-.475.76-.693 1.14-.19.408-.393.801-.611 1.182-.19.353-.38.72-.57 1.1-.109.217-.448.312-1.018.285-.38 0-.666-.109-.856-.326a3.968 3.968 0 0 1-.448-.733 21.85 21.85 0 0 1-.57-1.141 5.78 5.78 0 0 0-.407-.815 5.428 5.428 0 0 0-.286-.57 3.635 3.635 0 0 1-.366-.611 15.03 15.03 0 0 0-.489-1.06l-.733-1.588a7.492 7.492 0 0 0-.245-.407c-.081-.109-.122-.177-.122-.204-.271-.353-.584-.489-.937-.407-.489.054-.733.462-.733 1.222 0 1.195.014 2.322.041 3.38.027 1.033.054 2.024.081 2.975v.57c0 .217-.013.489-.04.815-.028.678-.096 1.1-.204 1.262-.19.272-.462.394-.815.367-.516-.027-.774-.394-.774-1.1 0-.815-.013-1.643-.041-2.485l-.081-2.607v-1.14c0-.354.027-.652.081-.897.055-.461.082-.869.082-1.222v-.896a214.27 214.27 0 0 1-.082-.937c-.054-.353-.108-.72-.162-1.1-.055-.543-.041-1.194.04-1.955.082-.787.19-1.44.326-1.955.054-.217.109-.38.163-.489.516-.543 1.032-.475 1.548.204.19.271.38.556.57.855.19.299.394.598.611.896.299.435.557.91.774 1.426a40.5 40.5 0 0 0 .652 1.466c.217.49.421.924.611 1.304.163.353.326.638.489.855l.122.163c.19.326.353.652.489.978.163.326.312.638.448.937.407.869.828 1.317 1.263 1.344.434 0 .747-.19.937-.57l.244-.57a6.95 6.95 0 0 0 .204-.53c.136-.299.298-.625.489-.978.162-.353.353-.706.57-1.059.38-.651.774-1.303 1.181-1.955a16.68 16.68 0 0 0 1.1-2.077l.367-.734c.163-.244.325-.502.488-.774l.53-.814.081-.163c.055-.082.123-.177.204-.285Zm11.161 9.898c.028.462.028.923 0 1.385-.027.462-.027.924 0 1.385.028 1.467.028 2.58 0 3.34 0 .326-.135.57-.407.734-.299.163-.57.176-.815.04-.217-.081-.339-.298-.366-.651l-.082-1.793a37.97 37.97 0 0 1-.04-1.792c.027-.733.04-1.48.04-2.24.027-.734.041-1.494.041-2.282v-2.688c0-.516-.014-1.06-.041-1.63 0-.57.014-1.167.041-1.792.027-.108.041-.244.041-.407v-.611c0-.408.013-.638.041-.693 0-.163.149-.34.448-.53.244-.162.733-.257 1.466-.284.38-.027.706-.041.978-.041.271-.027.502-.04.692-.04.489 0 1.005.013 1.548.04a610.8 610.8 0 0 0 1.589.081c.299.027.624.055.977.082.381.027.774.081 1.182.163.869.108 1.548.353 2.036.733.625.543 1.1 1.127 1.426 1.752.326.624.475 1.33.448 2.118-.027.543-.163 1.018-.407 1.426-.217.38-.543.72-.978 1.018a6.95 6.95 0 0 1-2.607 1.14c.055-.027-.081 0-.407.082a8.5 8.5 0 0 1-1.67.081 9.024 9.024 0 0 0-1.711.082c-.19 0-.407.013-.652.04-.244 0-.543-.013-.896-.04-.652-.027-1.127.068-1.426.285-.38.272-.543.774-.489 1.507Zm4.359-3.544h.244c.734 0 1.44-.027 2.119-.081.706-.082 1.385-.367 2.036-.856.679-.516.951-1.127.815-1.833s-.529-1.276-1.181-1.71a1.545 1.545 0 0 0-.489-.326 8 8 0 0 0-.611-.204c-.95-.217-1.833-.272-2.648-.163a19.583 19.583 0 0 1-2.566.163c-.217 0-.407-.014-.57-.04a1.72 1.72 0 0 1-.408-.042.507.507 0 0 0-.285 0c-.462.109-.719.516-.774 1.223 0 .162-.013.366-.041.61v.815c.028.109.041.231.041.367v.489c.027.651.231 1.127.611 1.425.353.299.964.435 1.833.408.299-.027.611-.055.937-.082.299-.054.611-.108.937-.163Zm25.419 7.984c-.299.408-.598.76-.897 1.06a7.51 7.51 0 0 1-.896.773c-.326.19-.679.367-1.059.53-.38.136-.815.23-1.303.285-.218.027-.462.04-.734.04a3.066 3.066 0 0 1-.855-.04 17.73 17.73 0 0 0-1.181-.04c-.381 0-.774-.041-1.182-.123-.896-.217-1.643-.53-2.24-.937a3.81 3.81 0 0 1-1.344-1.588c-.435-.897-.204-1.358.692-1.385.136 0 .299.108.489.325.19.218.353.38.489.49.38.38.597.583.652.61h.04v.041c.897.625 2.091.937 3.585.937h.081c.625 0 1.426-.122 2.404-.367.977-.244 1.616-.733 1.914-1.466.19-.462.19-.95 0-1.467v-.04c-.461-.978-1.357-1.63-2.688-1.956l-3.422-.896c-.489-.108-1.073-.34-1.751-.692-.353-.19-.666-.353-.937-.49a7.14 7.14 0 0 1-.611-.447c-.761-.57-1.209-1.127-1.345-1.67a1.726 1.726 0 0 1-.04-.408v-.61c0-.272.027-.53.081-.775.027-.244.054-.502.082-.774a3.926 3.926 0 0 1 1.099-2.28 3.162 3.162 0 0 1 1.019-.734c.407-.19.787-.367 1.14-.53a3.761 3.761 0 0 1 1.63-.366c.57-.027 1.14-.027 1.711 0 1.819.054 3.231.692 4.236 1.914.462.57.638 1.046.53 1.426l-.204.163c-.272.163-.611.068-1.018-.285a1.669 1.669 0 0 1-.326-.244 1.447 1.447 0 0 0-.285-.286 1.488 1.488 0 0 0-.367-.325 28.024 28.024 0 0 0-.489-.286l-.041-.04h-.081a8.26 8.26 0 0 0-2.118-.367 8.853 8.853 0 0 0-2.2.204c-.923.19-1.629.57-2.118 1.14-.462.543-.693 1.263-.693 2.16v.121c.082 1.141.978 1.956 2.689 2.444l.814.245 2.037.692a9.6 9.6 0 0 1 .937.367c.326.136.665.272 1.019.407.515.245 1.004.49 1.466.734.434.217.842.448 1.222.692.244.163.435.367.57.611.163.245.258.503.285.774.055.272.082.557.082.855-.027.3-.068.57-.122.815-.027.19-.082.38-.163.57-.082.19-.177.353-.285.49Zm7.373.856c-.028-1.14-.041-2.268-.041-3.381.027-1.14.041-2.281.041-3.422v-.978c0-.488-.014-.99-.041-1.507a14.03 14.03 0 0 1 0-1.507c.027-.57.041-1.127.041-1.67v-1.67c0-.652.163-1.114.488-1.385.245-.19.679-.285 1.304-.285.299 0 .57-.014.815-.041h.57a29.667 29.667 0 0 1 2.2 0c.706.027 1.425.04 2.159.04.38-.026.774-.04 1.181-.04a5.34 5.34 0 0 1 1.14.04l1.426.082h.408c.135 0 .244.027.325.082.381.19.571.475.571.855a.727.727 0 0 1-.204.407c-.109.109-.231.19-.367.245a1.19 1.19 0 0 1-.448.081c-.135.027-.258.04-.366.04a69.38 69.38 0 0 1-3.381-.08 1.719 1.719 0 0 0-.408-.041h-2.199c-.408 0-.788.013-1.141.04h-.815a4.23 4.23 0 0 0-.774.123c-.217.081-.366.19-.448.326-.163.217-.217.502-.163.855v.367c0 .108-.013.217-.04.325-.027.218-.055.449-.082.693a4.097 4.097 0 0 0 0 .815c0 .516.204.95.611 1.303.326.299.924.421 1.793.367.407 0 .801-.027 1.181-.082a5.34 5.34 0 0 1 1.14-.04h.652c.272.027.598.027.978 0 .733-.028 1.235.095 1.507.366.082.136.109.353.082.652-.055.326-.313.53-.774.611-.435.082-.774.122-1.019.122a5.88 5.88 0 0 1-.977 0c-.326 0-.666.014-1.019.04a9.16 9.16 0 0 1-1.222 0c-.434 0-.882-.026-1.344-.08H173.636a.713.713 0 0 0-.612.122c-.353.19-.543.543-.57 1.059-.054.489-.054.91 0 1.263.027.19.041.366.041.53v.447c-.054.299-.095.57-.122.815-.027.271-.055.557-.082.855-.054.706.041 1.236.285 1.589.299.407.842.611 1.63.611.597 0 1.222-.014 1.874-.04l1.873-.082a13.368 13.368 0 0 1 1.793.04c.597.055 1.195.082 1.792.082h.896c.353 0 .638.054.856.163.19.109.285.272.285.489.217.679-.068 1.032-.856 1.059a52.961 52.961 0 0 1-3.584.04h-3.585a.678.678 0 0 0-.204.041h-1.262a6.35 6.35 0 0 1-.774-.04h-.448c-.191 0-.394-.014-.611-.041a3.395 3.395 0 0 0-.449-.04 1.28 1.28 0 0 1-.285-.082c-.543-.163-.814-.68-.814-1.548Zm36.539-15.113c.108-.054.271-.095.489-.122.19 0 .38.014.57.04.163.055.326.123.489.204.163.109.285.218.366.326a56.92 56.92 0 0 1 1.833 4.237 44.052 44.052 0 0 0 1.874 4.195 31.136 31.136 0 0 1 1.467 3.34c.434 1.141.95 2.295 1.548 3.463l.081.122v.041c.299.543.57 1.005.815 1.385.217.38.407.665.57.855 1.303 1.766 2.661 3.042 4.073 3.83 1.358.787 2.893 1.126 4.604 1.018v-.04h.04c.543 0 .856.27.937.814.027.57-.244.869-.815.896-2.335.163-4.412-.34-6.232-1.507a12.11 12.11 0 0 1-3.3-3.137 25.145 25.145 0 0 1-2.321-3.87c-.218-.434-.421-.869-.611-1.303a13.32 13.32 0 0 0-.693-1.222 3.799 3.799 0 0 0-.692-.856 4.344 4.344 0 0 0-.774-.57 5.465 5.465 0 0 0-.937-.326 7.512 7.512 0 0 0-1.141-.081c-.326 0-.733.027-1.222.081-.462.054-.991.095-1.589.122l-.529.041c-.435.027-.883.082-1.344.163-.489.082-.897.272-1.222.57a1.55 1.55 0 0 0-.367.448c-.136.19-.244.421-.326.693-.081.217-.163.462-.244.733a7.712 7.712 0 0 0-.285.856c-.082.163-.191.488-.326.977-.489.57-.883.801-1.182.693-.135-.082-.23-.272-.285-.57a7.829 7.829 0 0 1-.04-.775c.027-.244.081-.502.162-.774a27.62 27.62 0 0 1 1.182-3.014c.434-1.005.882-2.01 1.344-3.014.353-.788.706-1.562 1.059-2.322.353-.788.693-1.589 1.018-2.404.163-.38.313-.76.449-1.14.135-.38.285-.76.448-1.14l.448-1.019c.244-.489.448-.801.611-.937Zm.855 3.707a.912.912 0 0 0-.815.448c-.135.109-.271.312-.407.611-.163.245-.299.53-.407.856-.136.325-.258.665-.367 1.018-.244.76-.421 1.385-.529 1.874-.109.896.054 1.466.488 1.71a.73.73 0 0 0 .367.123c.19.027.435.04.733.04h2.118a5.558 5.558 0 0 0 1.1-.163l.367-.122.122-.407c.109-.326.095-.72-.041-1.181-.135-.435-.353-.964-.651-1.589-.299-.625-.557-1.168-.774-1.63a91.205 91.205 0 0 1-.53-1.14c-.217-.326-.475-.475-.774-.448Zm16.824 13.076c-.598-.082-.897-.435-.897-1.06a109.2 109.2 0 0 1-.04-2.932v-2.974c0-.543.027-1.1.081-1.67.055-.407.082-.787.082-1.14 0-.354-.014-.68-.041-.978a4.672 4.672 0 0 1-.041-.652 41.87 41.87 0 0 1-.081-.937c0-.19.013-.407.04-.652 0-.271.014-.583.041-.936 0-.245.014-.476.041-.693V24.885c-.054-.462-.041-.788.041-.978.054-.136.163-.271.326-.407.733-.38 1.181-.15 1.344.692a8.93 8.93 0 0 1 .285 1.874c.027.598.014 1.195-.041 1.792a12.59 12.59 0 0 0-.04 1.752c.027.57.013 1.14-.041 1.71-.055.517-.109.951-.163 1.304-.027.38-.054.706-.082.978-.027.353-.04.733-.04 1.14 0 .408.013.829.04 1.263v1.63c0 .299.014.597.041.896v.57c.027.163.027.34 0 .53 0 .38-.013.584-.041.61-.054.354-.326.557-.814.612Z"/><path fill="#488EFF" d="M40.348 19.326a2.385 2.385 0 0 1 2.382 2.382v21.438a2.384 2.384 0 0 1-2.382 2.382H11.764a2.384 2.384 0 0 1-2.382-2.382V21.708a2.386 2.386 0 0 1 2.382-2.382h28.584Zm0-2.382H11.764A4.764 4.764 0 0 0 7 21.708v28.584a4.764 4.764 0 0 0 4.764 4.764h28.584a4.764 4.764 0 0 0 4.764-4.764V21.708a4.764 4.764 0 0 0-4.764-4.764Zm0 26.202-9.512-16.674-9.514 16.674h19.026Zm-18.55-5.643L18.9 33.618l-7.107 9.528h6.785l3.219-5.643Zm-5.27-13.413a2.381 2.381 0 1 0-.001 4.763 2.381 2.381 0 0 0 0-4.763Z"/></svg>