<svg xmlns="http://www.w3.org/2000/svg" aria-hidden="true" role="img" class="iconify iconify--logos" width="31.88" height="32" preserveAspectRatio="xMidYMid meet" viewBox="0 0 3332 2913"><path fill="#2e3034" d="M2967.341 1463.583q-4.906 4.329-11.736 4.714-6.637.288-12.601-2.117v-.096h-.192q-.962-.289-2.79-1.828-1.828-1.539-2.405-2.405-.962-1.25-1.731-2.885-.77-1.636-1.54-3.175-1.442-2.79-1.539-4.81-.096-.961-.096-2.308.096-1.25.193-2.886.577-7.215 4.52-13.371.385-.481 1.251-1.25.962-.77 2.405-1.54 2.982-1.635 5.098-2.308 1.347-.481 3.079-.674 3.944-.48 8.08 0 4.136.577 7.696 2.597.577.289 1.154.77.673.481 1.539 1.154 1.635 1.25 1.828 2.501 0 .578-.385 1.155-.77.865-1.443.865-.77 0-1.635-.577-.962-.673-1.443-1.058-1.155-.673-1.828-1.154-.673-.481-.866-.577-3.366-1.828-8.176-1.828-1.058 0-2.405.096-1.347.096-2.79.385h-.192l-.096.096q-8.37 2.405-10.87 11.351-.866 3.27-.385 6.157.577 2.885 1.347 5.867 1.25 4.618 4.136 6.638 2.886 2.02 7.31 2.886 1.251.192 2.213.192 1.058 0 2.02-.192.962-.193 2.02-.385 1.059-.192 2.213-.289 4.617-.577 6.637-3.366v-.097q1.443-2.212 1.155-6.252 0-2.117-1.443-3.367-1.828-1.635-5.002-1.54l-5.195.193q-.866.096-1.539.096-.673.097-1.154.097-2.501-.385-2.213-2.31.193-1.25 1.828-1.73 2.982-.193 5.868 0 2.79.192 5.868 0l2.79-.193q1.923-.192 2.885.673 1.058.77 1.058 2.694.193 2.02.193 3.078 0 1.732.096 3.655.096 2.02-.289 3.656-.48 2.5-2.5 5.002Zm45.308.77q.77.577.77 1.539.096 2.116-2.502 2.116-4.713 0-9.523-.096-4.713-.193-9.427.192-3.752.193-4.521-2.02-.385-1.058-.385-3.174 0-1.059.096-1.924v-1.347q.097-1.443.193-3.078.096-1.54 0-2.982-.096-3.175-.289-6.157-.096-2.982 0-6.156 0-1.54.096-2.982.097-1.54.097-3.078v-3.56q0-1.539-.193-2.886-.096-1.731 1.635-2.116 2.598-.48 2.79 3.078.192 1.443.192 2.886.097 1.443.193 2.694v1.731l-.193 2.501q-.192 1.058-.288 2.117-.096 1.058-.192 2.02-.097 2.5-.097 4.425 0 1.827.097 3.078.096 1.539.096 3.27.096 1.732-.096 3.656-.097 2.886.865 3.751.674.866 3.079 1.059 1.154.192 2.308.192 1.155.096 2.309.289 1.828.192 3.655 0 1.828-.193 3.656.096 1.154.096 2.886.192 1.635.096 2.693.674Zm17.123 3.463q-2.117-.29-2.117-2.502-.096-3.559-.096-6.926v-7.022q0-1.924.193-3.944.192-1.443.192-2.693t-.096-2.309q-.096-.673-.096-1.539-.097-.962-.193-2.212 0-.674.096-1.54 0-.962.097-2.212 0-.866.096-1.635v-3.174q-.193-1.636.096-2.31.192-.48.866-.961 2.5-1.347 3.174 1.635.481 2.212.577 4.425.096 2.116-.096 4.232-.192 2.117-.096 4.137.096 2.02-.096 4.04-.193 1.828-.289 3.078-.192 1.347-.288 2.309-.097 1.25-.097 2.693t.097 2.982v3.848q0 1.058.096 2.116 0 .674.096 1.347 0 .577-.096 1.25 0 1.347-.096 1.444-.193 1.25-1.924 1.443Zm54.734-39.825q.674-.192 2.117.192 1.539.385 1.827.962 0 .096.097.096.192 1.924.192 5.676v4.906q.096 2.02.192 3.848 0 1.827-.096 3.751-.192 1.924-.288 3.752-.097 1.828 0 3.655.096 1.636.192 3.175.192 1.539 0 3.078l-.192 3.078q-.097 2.213-.481 2.694-.674 1.058-1.636 1.058-2.116-.193-2.212-3.079-.193-4.232 0-8.465.288-4.232-.096-8.561l-.193-2.886q-.096-2.116-1.731-2.308-.674 0-1.155.192-.48.288-.77.77-.288.48-.48.961-.289.578-.481 1.059-.481 1.346-.866 2.404-.48 1.059-.77 1.828-.673 1.347-1.442 2.79-.866 1.346-1.636 2.693-.673 1.443-1.443 2.79-.673 1.25-1.346 2.597-.385.77-2.405.673-1.347 0-2.02-.77-.481-.576-1.058-1.73-.578-1.059-1.347-2.694-.481-1.154-.962-1.924-.385-.866-.673-1.347-.385-.48-.866-1.443-.385-.962-1.155-2.5l-1.731-3.752q-.385-.674-.577-.962-.289-.385-.289-.481-.962-1.25-2.212-.962-1.732.192-1.732 2.886 0 4.232.096 7.984.097 3.655.193 7.022v1.347q0 .77-.096 1.924-.097 2.405-.481 2.982-.674.962-1.924.866-1.828-.097-1.828-2.598 0-2.886-.096-5.868t-.193-6.156v-2.694q0-1.25.193-2.116.192-1.635.192-2.886v-2.116q-.096-1.058-.192-2.212-.193-1.25-.385-2.598-.192-1.924.096-4.617.289-2.79.77-4.617.192-.77.385-1.155 1.827-1.924 3.655.481.673.962 1.347 2.02.673 1.059 1.443 2.117 1.058 1.539 1.827 3.366.77 1.828 1.54 3.463.77 1.732 1.442 3.079.578 1.25 1.155 2.02l.288.385q.674 1.154 1.155 2.308.577 1.155 1.058 2.213 1.443 3.078 2.982 3.174 1.539 0 2.212-1.347l.577-1.346q.29-.674.481-1.25.481-1.059 1.155-2.31.577-1.25 1.347-2.5 1.346-2.31 2.79-4.618 1.442-2.309 2.596-4.906l.866-1.731q.577-.866 1.155-1.828l1.25-1.924.192-.385q.193-.288.481-.673Zm26.358 23.375q.096 1.636 0 3.27-.096 1.636 0 3.271.096 5.195 0 7.888 0 1.155-.962 1.732-1.058.577-1.924.096-.77-.288-.866-1.539l-.192-4.233q-.096-2.02-.096-4.232.096-2.597.096-5.29.096-2.598.096-5.388v-6.349q0-1.827-.096-3.847 0-2.02.096-4.233.096-.385.096-.962v-1.443q0-1.443.096-1.635 0-.577 1.059-1.25.865-.578 3.463-.674 1.346-.096 2.308-.096.962-.096 1.636-.096 1.731 0 3.655.096 1.828.096 3.752.192 1.058.096 2.308.193 1.347.096 2.79.384 3.078.385 4.81 1.732 2.212 1.924 3.366 4.136 1.155 2.213 1.059 5.002-.097 1.924-.962 3.367-.77 1.347-2.31 2.405-2.885 2.02-6.156 2.693.193-.096-.961.193-1.924.288-3.944.192-2.02-.096-4.04.193-.674 0-1.54.096-.866 0-2.116-.096-2.309-.097-3.367.673-1.347.962-1.154 3.56Zm10.293-8.369h.577q2.597 0 5.002-.192 2.501-.289 4.81-2.02 2.405-1.828 1.924-4.329-.481-2.501-2.79-4.04-.481-.481-1.154-.77-.77-.288-1.443-.48-3.367-.77-6.253-.385-1.443.192-2.982.288-1.443.096-3.078.096-.77 0-1.347-.096-.577 0-.962-.096t-.673 0q-1.636.385-1.828 2.886 0 .577-.096 1.443v1.924q.096.384.096.865v1.155q.096 2.308 1.443 3.367 1.25 1.058 4.329.961 1.058-.096 2.212-.192 1.058-.192 2.213-.385Zm60.025 18.854q-1.058 1.443-2.116 2.502-1.058 1.058-2.116 1.827-1.155.674-2.501 1.25-1.347.482-3.079.674-.77.096-1.731.096-.962.097-2.02-.096-1.443-.096-2.79-.096t-2.79-.289q-3.174-.77-5.29-2.212-2.117-1.443-3.175-3.752-1.539-3.174 1.636-3.27.48 0 1.154.77.673.769 1.154 1.154 1.347 1.346 1.54 1.442h.096v.097q3.174 2.212 8.465 2.212h.192q2.213 0 5.676-.866 3.463-.865 4.52-3.463.674-1.635 0-3.463v-.096q-1.635-3.463-6.348-4.617l-8.08-2.116q-1.732-.385-4.137-1.636-1.25-.673-2.212-1.154-.866-.577-1.443-1.058-2.694-2.02-3.175-3.944-.096-.385-.096-.962v-1.443q0-.962.192-1.828.097-.866.193-1.828.385-3.078 2.597-5.386.962-1.059 2.405-1.732 1.443-.673 2.693-1.25 1.828-.866 3.848-.866 2.02-.096 4.04 0 6.445.192 10.005 4.52 1.635 2.021 1.25 3.368l-.48.385q-.963.577-2.406-.674-.48-.288-.77-.577-.288-.385-.673-.673-.288-.385-.865-.77-.481-.288-1.155-.673l-.096-.096h-.192q-2.501-.77-5.002-.866-2.501-.096-5.195.48-3.27.674-5.002 2.694-1.635 1.924-1.635 5.099V1438.957q.288 4.04 6.349 5.772l1.923.577 4.81 1.635q1.155.385 2.213.866 1.154.481 2.405.962 1.827.866 3.463 1.731 1.539.77 2.885 1.636.866.577 1.347 1.443.577.865.673 1.827.193.962.193 2.02-.096 1.059-.289 1.924-.096.674-.384 1.347-.29.673-.674 1.154Zm17.411 2.02q-.096-4.04-.096-7.984.096-4.04.096-8.08v-2.309q0-1.731-.096-3.559t0-3.56q.096-2.02.096-3.943v-3.944q0-2.309 1.155-3.27.865-.674 3.078-.674 1.058 0 1.924-.096h1.347q2.597-.096 5.194 0 2.501.096 5.098.096 1.347-.096 2.79-.096 1.347-.096 2.694.096l3.366.192h.962q.481 0 .77.193 1.347.673 1.347 2.02-.097.577-.481.962-.385.385-.866.577-.481.192-1.058.192-.481.097-.866.097-4.04 0-7.984-.193-.385-.096-.962-.096h-5.195q-1.443 0-2.693.096h-1.924q-1.154.096-1.828.289-.77.288-1.058.77-.577.769-.385 2.02v.865q0 .385-.096.77-.096.77-.192 1.635-.096.866 0 1.924 0 1.828 1.443 3.078 1.154 1.058 4.232.866 1.443 0 2.79-.192 1.347-.193 2.693-.097h1.54q.961.097 2.308 0 2.597-.096 3.56.866.288.481.192 1.54-.193 1.154-1.828 1.442-1.54.289-2.405.289-1.154.096-2.309 0-1.154 0-2.404.096-1.443.096-2.886 0-1.54 0-3.175-.193h-.962q-.77-.192-1.443.29-1.25.672-1.346 2.5-.193 1.732 0 2.982.096.674.096 1.25v1.059q-.192 1.058-.289 1.924-.096.962-.192 2.02-.192 2.5.673 3.751 1.058 1.443 3.848 1.443 2.116 0 4.425-.096l4.425-.192q2.02-.096 4.233.096 2.116.192 4.232.192h2.116q1.251 0 2.02.385.674.385.674 1.154.77 2.405-2.02 2.502-4.329.192-8.465.096h-8.465q-.193 0-.481.096h-2.982q-1.059 0-1.828-.096h-1.058q-.674 0-1.443-.096-.674-.097-1.058-.097-.481-.096-.674-.192-1.924-.577-1.924-3.655Zm86.287-35.688q.385-.192 1.154-.288.674 0 1.347.096.577.192 1.154.48.578.386.866.77 2.405 5.003 4.329 10.005 1.924 5.002 4.425 9.908 1.924 3.751 3.463 7.888 1.54 4.04 3.655 8.176l.193.289v.096q1.058 1.924 1.924 3.27.77 1.347 1.346 2.02 4.618 6.253 9.62 9.043 4.81 2.79 10.87 2.405v-.096h.096q1.924 0 2.213 1.924.096 2.02-1.924 2.116-8.273.577-14.718-3.56-4.618-2.981-7.792-7.406-3.27-4.521-5.483-9.139-.77-1.539-1.443-3.078-.77-1.54-1.635-2.886-.77-1.25-1.636-2.02-.962-.866-1.827-1.347-1.058-.48-2.213-.77-1.25-.192-2.693-.192-1.155 0-2.886.193-1.635.192-3.752.288l-1.25.097q-1.54.096-3.175.384-1.731.289-2.885 1.347-.481.385-.866 1.058-.481.674-.77 1.636-.288.77-.577 1.731-.385.962-.673 2.02-.289.577-.77 2.309-1.731 2.02-2.79 1.635-.48-.288-.673-1.347-.096-.962-.096-1.827.096-.866.385-1.828 1.154-3.56 2.79-7.118 1.538-3.56 3.174-7.119 1.25-2.79 2.5-5.483 1.251-2.79 2.406-5.675.577-1.347 1.058-2.694.48-1.347 1.058-2.693l1.058-2.405q.866-1.732 1.443-2.213Zm2.02 8.754q-1.25 0-1.924 1.058-.48.385-.962 1.443-.577.866-.962 2.02-.48 1.155-.865 2.405-.866 2.693-1.25 4.425-.386 3.174 1.153 4.04.481.289.866.289.674.096 1.732.096h5.002q1.539-.096 2.597-.385l.866-.288.288-.962q.385-1.155-.096-2.79-.48-1.54-1.539-3.752-1.058-2.212-1.828-3.847-.77-1.636-1.25-2.694-.77-1.154-1.828-1.058Zm39.729 30.879q-2.117-.29-2.117-2.502-.096-3.559-.096-6.926v-7.022q0-1.924.193-3.944.192-1.443.192-2.693t-.096-2.309q-.096-.673-.096-1.539-.097-.962-.193-2.212 0-.674.096-1.54 0-.962.097-2.212 0-.866.096-1.635v-3.174q-.193-1.636.096-2.31.192-.48.77-.961 2.597-1.347 3.174 1.635.577 2.212.673 4.425.096 2.116-.096 4.232-.192 2.117-.096 4.137.096 2.02-.096 4.04-.193 1.828-.385 3.078-.096 1.347-.193 2.309-.096 1.25-.096 2.693t.096 2.982v3.848q0 1.058.097 2.116v1.347q.096.577 0 1.25 0 1.347-.097 1.444-.192 1.25-1.923 1.443Z"/><path fill="#488eff" d="M2549.267 182.689c100.443 0 182.044 81.778 182.044 182.044v1638.4c0 100.443-81.601 182.045-182.044 182.045H364.733c-100.357 0-182.044-81.602-182.044-182.045v-1638.4c0-100.266 81.687-182.044 182.044-182.044h2184.534m0-182.045H364.733C163.665.644.644 163.665.644 364.734v2184.533c0 201.068 163.021 364.089 364.09 364.089h2184.533c201.068 0 364.089-163.021 364.089-364.09V364.734c0-201.068-163.021-364.089-364.09-364.089zm0 2002.49L1822.335 728.821 1095.22 2003.133h1454.046zm-1417.689-431.287-221.422-296.891-543.113 728.177h518.576l245.96-431.286zM728.822 546.777c-100.534 0-182.044 81.426-182.044 182.045s81.51 182.045 182.044 182.045 182.045-81.425 182.045-182.045-81.51-182.044-182.045-182.044z"/></svg>